<svg width="657" height="386" viewBox="0 0 657 386" fill="none" xmlns="http://www.w3.org/2000/svg">
<path d="M656.5 -6.31086C579.788 -29.1913 494.704 -4.75524 432.076 -8.44252C411.771 -9.6388 392.517 -9.3505 378.459 -3.43823C349.793 8.61725 344.372 43.1046 326.596 65.8422C304.023 94.7225 260.476 104.139 202.261 93.7071C158.455 85.8559 100.339 68.7086 71.6101 79.4304C45.5119 89.1708 75.9262 154.709 79.817 188.754C83.7996 223.623 70.5852 245.989 44.1443 253.963C30.2913 258.139 12.7815 258.403 -7.8507 254.421C-27.5831 250.611 -57.0113 235.771 -47.6648 262.075C-44.575 270.769 -37.3606 281.561 -32.3126 291.285C-14.7731 325.078 -27.8106 343.025 -60.8725 330.593M653.78 -6.6947C576.93 -30.8282 491.611 -7.14424 429.263 -10.8717C408.483 -12.1316 389.34 -11.3491 374.592 -5.75073C356.846 1.05065 347.221 15.7419 338.499 31.3599C332.544 42.0198 327.012 53.1141 319.613 62.4336C304.992 80.8401 282.67 92.1115 254.231 96.12C237.602 98.4627 218.876 98.3144 198.306 95.6084C183.898 93.7481 167.901 90.8571 152.009 88.3772C129.698 84.9264 107.605 82.3046 90.0487 84.2459C83.7344 84.932 78.0056 86.2048 73.0972 88.2571C52.8335 96.7671 65.7602 138.157 72.8803 171.145C74.815 180.012 76.333 188.276 76.6801 195.145C78.2424 223.504 67.3665 242.59 46.6757 251.495C43.1148 253.03 39.2616 254.263 35.127 255.191C20.387 258.504 2.08244 258.005 -19.0662 253.673C-31.5934 251.105 -47.6567 244.539 -56.0805 246.022C-61.2682 246.934 -63.5034 250.922 -60.331 260.686C-57.5591 269.217 -50.8179 279.789 -46.12 289.369C-29.773 322.66 -42.7477 340.909 -75.7724 329.049M651.065 -7.07488C574.073 -32.4648 488.521 -9.52939 426.453 -13.2958C405.194 -14.6215 386.163 -13.3462 370.733 -8.05488C352.28 -1.61625 341.853 12.6742 332.502 28.0759C326.115 38.5905 320.229 49.6256 312.635 59.0347C297.642 77.6291 275.593 89.6945 248.076 95.0821C231.99 98.2334 214.02 99.0813 194.357 97.5195C180.592 96.4948 165.339 94.5074 150.221 92.9383C129 90.7904 108.048 89.4921 91.0919 92.3289C84.9928 93.3245 79.4154 94.8493 74.5838 97.0927C54.6269 106.434 65.9419 146.875 71.194 178.582C72.6462 187.107 73.6365 194.988 73.5365 201.536C73.1245 228.403 60.6288 246.033 38.4195 253.47C34.6021 254.754 30.4889 255.733 26.1077 256.422C10.4795 258.873 -8.61976 257.611 -30.2873 252.924C-43.1282 250.144 -59.3228 243.6 -68.0184 245.003C-73.3771 245.868 -75.7847 249.796 -73.003 259.297C-70.5512 267.666 -64.2845 278.013 -59.933 287.453C-44.7775 320.24 -57.6917 338.793 -90.6733 327.507M648.351 -7.45679C571.218 -34.0985 485.428 -11.9186 423.645 -15.723C401.91 -17.1111 382.991 -15.3429 366.871 -10.3655C347.709 -4.29304 336.483 9.60004 326.503 24.7854C319.68 35.1513 313.443 46.1257 305.659 55.6326C290.292 74.4103 268.518 87.2744 241.928 94.0434C226.38 98.001 209.105 99.7692 190.413 99.431C177.249 99.1905 162.786 98.1629 148.439 97.4986C128.308 96.6547 108.499 96.6774 92.1467 100.413C86.2639 101.717 80.8356 103.496 76.0794 105.925C56.4283 116.098 66.0083 155.501 69.5194 186.021C70.4598 194.183 70.9723 201.717 70.4081 207.932C68.1014 233.363 53.9053 249.482 30.1761 255.446C26.0975 256.477 21.7314 257.209 17.1012 257.653C0.586044 259.241 -19.308 257.217 -41.4945 252.174C-54.6491 249.181 -70.9738 242.658 -79.9423 243.982C-85.4757 244.797 -88.0594 248.662 -85.6585 257.911C-83.5305 266.116 -77.731 276.244 -73.7259 285.543C-59.763 317.828 -72.6105 336.687 -105.559 325.97M645.631 -7.84072C568.36 -35.7354 482.334 -14.3076 420.828 -18.1557C398.615 -19.6096 379.753 -17.4088 363.005 -12.678C343.068 -7.04265 331.109 6.52263 320.496 21.4895C313.242 31.7089 306.647 42.6206 298.672 52.2205C282.93 71.1828 261.428 84.8408 235.764 92.9923C220.759 97.7586 204.217 100.502 186.454 101.329C173.918 101.91 160.219 101.803 146.637 102.043C127.597 102.502 108.929 103.848 93.181 108.483C87.5133 110.096 82.2351 112.129 77.5581 114.746C58.2139 125.751 66.1469 164.176 67.8278 193.449C68.2772 201.263 68.2924 208.433 67.264 214.316C63.0649 238.308 47.1672 252.918 21.9194 257.414C17.5832 258.195 12.9607 258.676 8.08142 258.877C-9.32067 259.601 -30.0107 256.815 -52.7124 251.421C-66.1808 248.216 -82.6318 241.717 -91.8769 242.959C-97.585 243.723 -100.346 247.526 -98.3272 256.518C-96.5242 264.559 -91.1945 274.464 -87.5357 283.622C-74.7654 315.406 -87.5513 334.567 -120.456 324.423M642.917 -8.2221C565.504 -37.3733 479.242 -16.6976 418.019 -20.5811C395.33 -22.0975 376.567 -19.4189 359.146 -14.9834C338.489 -9.72593 325.742 3.45367 314.5 18.2042C306.81 28.2749 299.863 39.126 291.698 48.8237C275.583 67.9692 254.358 82.4247 229.615 91.9554C215.149 97.528 199.348 101.253 182.511 103.241C170.608 104.646 157.62 105.405 144.855 106.605C126.842 108.295 109.45 111.108 94.2351 116.569C88.8071 118.517 83.6557 120.776 79.0554 123.585C60.017 135.422 66.309 172.871 66.1512 200.89C66.1108 208.355 65.6263 215.164 64.1337 220.715C58.0544 243.277 40.443 256.369 13.6729 259.394C9.07656 259.921 4.20142 260.154 -0.929345 260.114C-19.2221 259.97 -40.7081 256.424 -63.925 250.677C-77.7071 247.261 -94.2895 240.783 -103.806 241.945C-109.689 242.659 -112.627 246.399 -110.991 255.134C-109.513 263.012 -104.653 272.693 -101.34 281.711C-89.7612 312.992 -102.486 332.456 -135.354 322.885M640.198 -8.60612C562.646 -39.0103 476.148 -19.0867 415.207 -23.0104C392.039 -24.5939 373.38 -21.4293 355.28 -17.2961C333.903 -12.4165 320.372 0.380963 308.497 14.9117C300.374 24.8371 293.07 35.6254 284.715 45.4149C268.225 64.7449 247.272 79.9944 223.459 90.9111C209.535 97.2924 194.47 101.997 178.56 105.146C167.288 107.376 155.053 109.045 143.066 111.159C126.132 114.142 109.903 118.299 95.2815 124.648C90.0735 126.908 85.0638 129.414 80.5464 132.415C61.8148 145.083 66.4658 181.556 64.4718 208.327C63.9416 215.443 62.9634 221.891 60.9969 227.105C53.0386 248.236 33.7122 259.812 5.42357 261.369C0.569633 261.646 -4.56195 261.629 -9.9381 261.348C-29.1178 260.341 -51.3986 256.032 -75.1357 249.931C-89.2315 246.303 -105.944 239.845 -115.734 240.928C-121.79 241.591 -124.913 245.269 -123.653 253.749C-122.505 261.462 -118.106 270.925 -115.139 279.801C-104.753 310.579 -117.412 330.35 -150.244 321.345M637.482 -8.98621C559.79 -40.6422 473.059 -21.4719 412.396 -25.4345C388.754 -27.0804 370.2 -23.4311 351.42 -19.6002C329.327 -15.0949 315.003 -2.68671 302.5 11.6277C293.941 21.4044 286.285 32.1322 277.74 42.0195C260.877 61.5327 240.199 77.5808 217.309 89.8754C203.925 97.0618 189.599 102.75 174.614 107.06C163.973 110.117 152.49 112.697 141.277 115.72C125.425 120 110.359 125.495 96.3296 132.733C91.3415 135.305 86.4772 138.062 82.0377 141.253C63.6118 154.753 66.6279 190.25 62.7941 215.77C61.7777 222.54 60.3011 228.626 57.8655 233.506C48.0368 253.211 26.9856 263.265 -2.82413 263.35C-7.93568 263.378 -13.3274 263.106 -18.9489 262.584C-39.0156 260.714 -62.0923 255.644 -86.3446 249.191C-100.754 245.351 -117.598 238.914 -127.659 239.918C-133.887 240.534 -137.2 244.142 -136.309 252.372C-135.492 259.921 -131.557 269.161 -128.936 277.897C-119.737 308.175 -132.338 328.246 -165.13 319.817M634.768 -9.3676C556.934 -42.28 469.967 -23.8618 409.585 -27.8646C385.463 -29.5763 367.019 -25.4388 347.555 -21.9136C324.75 -17.7793 309.63 -5.76376 296.494 8.33088C287.505 17.9611 279.491 28.6261 270.754 38.6077C253.515 58.3055 233.113 75.151 211.145 88.8248C198.303 96.821 184.72 103.497 170.656 108.958C160.649 112.845 149.917 116.331 139.481 120.267C124.708 125.841 110.803 132.674 97.3691 140.805C92.5998 143.69 87.8831 146.696 83.5216 150.076C65.4026 164.408 66.7874 198.933 61.1078 223.2C59.6052 229.624 57.6312 235.347 54.7266 239.892C43.0348 258.179 20.2528 266.703 -11.078 265.316C-16.4497 265.089 -22.0942 264.57 -27.9671 263.807C-48.9208 261.073 -72.7935 255.242 -97.5646 248.434C-112.288 244.381 -129.258 237.969 -139.596 238.89C-145.998 239.456 -149.503 242.995 -148.98 250.974C-148.498 258.355 -145.019 267.381 -142.748 275.972C-134.742 305.748 -147.281 326.122 -180.033 318.263M632.049 -9.75157C554.076 -43.917 466.873 -26.251 406.771 -30.2927C382.173 -32.0668 363.835 -27.4445 343.69 -24.2204C320.173 -20.457 304.257 -8.83411 290.492 5.0442C281.067 14.5257 272.703 25.135 263.775 35.2083C246.163 55.0894 226.032 72.7301 204.995 87.7886C192.692 96.59 179.852 104.253 166.708 110.868C157.334 115.585 147.351 119.977 137.693 124.826C124.003 131.697 111.255 139.866 98.4167 148.89C93.8674 152.087 89.2962 155.343 85.0125 158.914C67.1993 174.077 66.9565 207.634 59.4247 230.641C57.4372 236.717 54.9673 242.083 51.5899 246.29C38.041 263.159 13.522 270.153 -19.3274 267.298C-24.9566 266.822 -30.8575 266.051 -36.9795 265.045C-58.8201 261.447 -83.4913 254.85 -108.779 247.692C-123.815 243.425 -140.917 237.036 -151.527 237.877C-158.104 238.393 -161.801 241.863 -161.646 249.592C-161.5 256.807 -158.48 265.612 -156.552 274.067C-149.737 303.34 -162.212 324.021 -194.926 316.733M629.334 -10.1334C551.223 -45.5519 463.78 -28.6413 403.963 -32.7197C378.886 -34.5597 360.657 -29.4492 339.829 -26.5308C315.598 -23.1371 298.888 -11.9094 284.492 1.75515C274.634 11.0914 265.915 21.6365 256.794 31.8042C238.807 51.8698 218.952 70.3079 198.837 86.7457C187.076 96.3568 174.983 105.01 162.755 112.774C154.02 118.324 144.781 123.62 135.898 129.379C123.292 137.552 111.7 147.05 99.4545 156.963C95.1251 160.471 90.6993 163.979 86.4948 167.738C68.9884 183.733 67.1229 216.323 57.7367 238.072C55.263 243.802 52.2994 248.808 48.4481 252.678C33.0496 268.136 6.78632 273.593 -27.5853 269.267C-33.4759 268.538 -39.6294 267.52 -46.0005 266.269C-68.7281 261.808 -94.1952 254.45 -119.997 246.939C-135.346 242.46 -152.579 236.091 -163.462 236.854C-170.213 237.319 -174.106 240.717 -174.315 248.199C-174.508 255.244 -171.965 263.819 -170.362 272.146C-164.829 300.857 -177.152 321.9 -209.828 315.184M626.619 -10.5136C548.364 -47.1873 460.69 -31.0253 401.154 -35.1452C375.602 -37.0475 357.481 -31.4477 335.97 -28.8363C311.031 -25.8101 293.521 -14.9783 278.496 -1.53015C268.203 7.65735 259.131 18.1419 249.821 28.4073C231.46 48.6561 211.88 67.8931 192.688 85.7087C181.467 96.125 170.121 105.775 158.812 114.686C150.714 121.069 142.225 127.272 134.117 133.939C122.597 143.413 112.155 154.24 100.509 165.049C96.3944 168.867 92.1199 172.627 87.9921 176.577C70.7915 193.404 67.307 225.031 56.0639 245.517C53.1089 250.904 49.6505 255.551 45.3178 259.077C28.077 273.132 0.0608937 277.046 -35.8281 271.251C-41.9751 270.27 -48.3888 268.998 -55.0065 267.508C-78.621 262.184 -104.884 254.064 -131.205 246.198C-146.868 241.507 -164.228 235.162 -175.386 235.842C-182.311 236.256 -186.406 239.581 -186.97 246.821C-187.508 253.694 -185.415 262.054 -184.154 270.244C-179.812 298.452 -192.075 319.799 -224.712 313.653M623.9 -10.8976C545.506 -48.8243 457.592 -33.4178 398.336 -37.5766C372.306 -39.546 354.297 -33.4533 332.099 -31.1511C306.451 -28.4924 288.145 -18.0532 272.487 -4.8248C261.763 4.21619 252.334 14.6379 242.833 24.9965C224.097 45.4298 204.79 65.4607 186.523 84.6589C175.844 95.8851 165.245 106.525 154.851 116.586C147.391 123.803 139.65 130.913 132.317 138.49C121.882 149.265 112.592 161.419 101.545 173.124C97.6511 177.253 93.5219 181.264 89.4696 185.399C72.5759 203.057 67.476 233.725 54.3686 252.941C50.9323 257.984 46.9791 262.272 42.17 265.457C23.0905 278.112 -6.6809 280.478 -44.0922 273.212C-50.5004 271.978 -57.1669 270.459 -64.0348 268.726C-88.54 262.535 -115.594 253.656 -142.435 245.435C-158.412 240.533 -175.902 234.208 -187.333 234.81C-194.429 235.176 -198.729 238.425 -199.652 245.42C-200.537 252.116 -198.892 260.266 -197.977 268.316C-194.831 296.017 -207.024 317.674 -239.624 312.1M621.186 -11.2788C542.653 -50.4585 454.641 -35.6327 395.528 -40.0033C369.083 -41.9592 351.125 -35.4493 328.242 -33.4576C301.887 -31.1616 282.78 -21.1234 266.489 -8.11473C255.329 0.777538 245.546 11.14 235.857 21.5951C216.748 42.2117 197.716 63.0398 180.375 83.6207C170.236 95.652 160.393 107.294 150.909 118.497C144.09 126.551 137.099 134.568 130.533 143.046C121.183 155.123 113.046 168.602 102.597 181.205C98.919 185.643 94.9389 189.908 90.9645 194.233C74.3765 212.724 67.6661 242.435 52.6932 260.382C48.7756 265.081 44.3276 269.01 39.0409 271.855C18.1264 283.113 -13.404 283.927 -52.3327 275.193C-58.9985 273.709 -65.9213 271.939 -73.0383 269.962C-98.4305 262.908 -126.281 253.268 -153.636 244.695C-169.927 239.581 -187.549 233.278 -199.252 233.799C-206.522 234.115 -211.026 237.286 -212.305 244.039C-213.538 250.56 -212.339 258.499 -211.77 266.407C-209.818 293.601 -221.948 315.566 -254.508 310.562M618.47 -11.6595C539.795 -52.0957 451.551 -38.0185 392.718 -42.428C365.797 -44.4463 347.952 -37.4447 324.382 -35.7622C297.321 -33.829 277.411 -24.1915 260.491 -11.3992C248.899 -2.6522 238.761 7.64623 228.878 18.1956C209.398 39.0002 190.635 60.6189 174.22 82.5823C164.622 95.4235 155.532 108.065 146.959 120.407C140.785 129.303 134.535 138.219 128.744 147.606C120.482 160.989 113.49 175.788 103.643 189.291C100.181 194.038 96.3481 198.552 92.4554 203.07C76.1743 222.392 67.8522 251.147 51.0138 267.825C46.6138 272.183 41.6721 275.752 35.9078 278.256C13.1645 288.125 -20.131 287.381 -60.582 277.175C-67.5042 275.441 -74.6835 273.419 -82.0507 271.2C-108.33 263.282 -136.98 252.877 -164.851 243.953C-181.452 238.63 -199.203 232.347 -211.183 232.786C-218.628 233.052 -223.341 236.142 -224.97 242.656C-226.556 248.999 -225.794 256.732 -225.572 264.5C-224.812 291.191 -236.88 313.459 -269.4 309.031M615.752 -12.0442C536.937 -53.7322 448.455 -40.4118 389.906 -44.858C362.51 -46.9387 344.777 -39.4444 320.517 -38.0758C292.75 -36.5053 272.038 -27.2685 254.49 -14.6926C242.462 -6.09427 231.971 4.1436 221.9 14.7895C202.046 35.7773 183.559 58.1947 168.065 81.5373C159.007 95.1836 150.674 108.827 143.01 122.311C137.477 132.044 131.976 141.867 126.955 152.16C119.787 166.851 113.934 182.967 104.691 197.369C101.445 202.425 97.7616 207.192 93.948 211.899C77.9726 232.054 68.0473 259.858 49.3361 275.261C44.4585 279.278 39.022 282.489 32.7727 284.646C8.20548 293.129 -26.8614 290.823 -68.8334 279.145C-76.0169 277.158 -83.4526 274.886 -91.0652 272.426C-118.231 263.644 -147.676 252.478 -176.067 243.199C-192.982 237.664 -210.863 231.401 -223.116 231.762C-230.736 231.978 -235.661 234.984 -237.638 241.263C-239.576 247.427 -239.257 254.952 -239.381 262.58C-239.813 288.768 -251.816 311.343 -284.301 307.482M613.037 -12.4249C534.083 -55.3658 445.228 -42.9691 387.096 -47.2826C359.156 -49.5085 341.603 -41.4383 316.657 -40.3803C288.184 -39.1725 266.671 -30.3378 248.492 -17.9769C236.033 -9.52513 225.189 0.653391 214.922 11.3901C194.693 32.5625 176.481 55.7772 161.915 80.5012C153.399 94.9573 145.823 109.602 139.064 124.225C134.179 134.802 129.42 145.525 125.168 156.72C119.088 172.715 114.379 190.151 105.739 205.454C102.709 210.818 99.1745 215.84 95.4388 220.737C79.7704 241.722 68.2409 268.578 47.6531 282.702C42.2942 286.375 36.3653 289.231 29.6371 291.042C3.24846 298.143 -33.5909 294.272 -77.0815 281.126C-84.5215 278.888 -92.2148 276.366 -100.078 273.664C-128.131 264.018 -158.371 252.091 -187.278 242.46C-204.506 236.712 -222.519 230.471 -235.042 230.751C-242.831 230.919 -247.974 233.839 -250.295 239.886C-252.588 245.867 -252.68 253.21 -253.179 260.675C-254.71 286.432 -266.744 309.239 -299.187 305.953M610.321 -12.8055C531.225 -57.0029 442.134 -45.3582 384.283 -49.712C355.869 -52.0015 338.427 -43.4384 312.79 -42.6931C283.615 -41.8446 261.3 -33.4107 242.485 -21.2731C229.59 -12.97 218.392 -2.85078 207.937 7.98243C187.334 29.3381 169.394 53.3481 155.753 79.4547C147.776 94.7159 140.961 110.366 135.108 126.128C130.868 137.544 126.859 149.173 123.372 161.272C118.386 178.575 114.816 197.329 106.78 213.53C103.967 219.202 100.582 224.478 96.9246 229.565C81.5619 251.382 68.4354 277.296 45.9698 290.135C40.132 293.469 33.7133 295.969 26.5001 297.433C-1.70747 303.157 -40.3218 297.714 -85.3347 283.097C-93.036 280.606 -100.981 277.836 -109.09 274.894C-138.03 264.385 -169.066 251.695 -198.492 241.71C-216.034 235.751 -234.173 229.533 -246.973 229.731C-254.937 229.848 -260.297 232.682 -262.96 238.496C-265.612 244.291 -266.136 251.436 -266.982 258.762C-269.704 284.015 -281.677 307.126 -314.082 304.411M607.603 -13.1907C528.368 -58.6411 439.042 -47.7485 381.471 -52.1424C352.578 -54.4978 335.256 -45.4349 308.929 -45.0035C279.051 -44.5143 255.93 -36.4847 236.486 -24.5634C223.159 -16.4056 211.605 -6.35037 200.959 4.57589C179.981 26.116 162.317 50.9235 149.599 78.4079C142.164 94.4791 136.111 111.132 131.159 128.03C127.568 140.291 124.301 152.82 121.586 165.823C117.695 184.439 115.259 204.501 107.826 221.603C105.227 227.585 101.993 233.113 98.413 238.39C83.356 261.04 68.6326 286.012 44.288 297.567C37.9763 300.564 31.0615 302.706 23.3645 303.822C-6.65467 308.176 -47.0514 301.155 -93.5817 285.07C-101.541 282.329 -109.742 279.308 -118.1 276.122C-147.927 264.75 -179.762 251.295 -209.699 240.96C-227.555 234.789 -245.825 228.593 -258.897 228.711C-267.036 228.778 -272.614 231.519 -275.619 237.107C-278.634 242.713 -279.59 249.661 -280.782 256.845C-284.693 281.6 -296.603 305.013 -328.974 302.866M604.887 -13.5708C525.514 -60.2743 435.952 -50.1337 378.661 -54.5666C349.292 -56.9843 332.084 -47.4238 305.064 -47.3098C274.484 -47.1799 250.557 -39.5546 230.484 -27.8496C216.721 -19.8405 204.815 -9.84585 193.979 1.17819C172.628 22.9016 155.235 48.5043 143.446 77.3748C136.551 94.251 131.262 111.913 127.212 129.946C124.271 143.049 121.748 156.483 119.796 170.386C116.999 190.308 115.698 211.685 108.873 229.69C106.49 235.979 103.405 241.762 99.9044 247.228C85.1543 270.709 68.8327 294.74 42.6054 305.008C35.8149 307.666 28.4101 309.452 20.2282 310.22C-11.6038 313.205 -53.7828 304.607 -101.834 287.049C-110.053 284.054 -118.512 280.783 -127.116 277.356C-157.834 265.117 -190.461 250.905 -220.916 240.215C-239.086 233.831 -257.487 227.656 -270.835 227.691C-279.148 227.708 -284.947 230.359 -288.291 235.717C-291.67 241.135 -293.053 247.888 -294.595 254.929C-299.698 279.18 -311.547 302.897 -343.876 301.324M602.173 -13.9523C522.656 -61.9109 432.859 -52.5224 375.853 -56.9933C346.005 -59.4769 328.917 -49.4166 301.207 -49.6165C269.923 -49.8446 245.191 -42.6248 224.489 -31.1361C210.294 -23.2723 198.032 -13.3416 187.005 -2.22456C165.278 19.6834 148.162 46.0835 137.296 76.3318C130.943 94.0179 126.416 112.683 123.267 131.852C120.976 145.799 119.198 160.135 118.012 174.942C116.312 196.175 116.144 218.863 109.924 237.771C107.753 244.367 104.823 250.405 101.399 256.062C86.9549 280.375 69.0388 303.468 40.93 312.448C33.6656 314.77 25.7649 316.198 17.0967 316.613C-16.5492 318.231 -60.5084 308.052 -110.078 289.026C-118.555 285.782 -127.269 282.258 -136.124 278.59C-167.73 265.489 -201.151 250.513 -232.127 239.469C-250.609 232.872 -269.138 226.723 -282.762 226.675C-291.25 226.642 -297.272 229.199 -300.948 234.335C-304.694 239.56 -306.505 246.119 -308.389 253.022C-314.685 276.772 -326.472 300.791 -358.762 299.789M599.454 -14.3362C519.798 -63.5479 429.766 -54.9116 373.035 -59.4248C342.712 -61.9708 325.743 -51.4105 297.336 -51.9313C265.353 -52.5152 239.812 -45.7032 218.477 -34.4343C203.847 -26.7204 191.231 -16.8479 180.015 -5.63431C157.915 16.4569 141.074 43.6557 131.13 75.2832C125.316 93.7744 121.558 113.451 119.305 133.753C117.664 148.543 116.632 163.783 116.212 179.492C115.61 202.036 116.572 226.036 110.96 245.847C109.005 252.751 106.224 259.044 102.879 264.889C88.7418 290.034 69.2337 312.194 39.2397 319.882C31.4965 321.865 23.1035 322.939 13.9527 323.004C-21.4999 323.261 -67.2464 311.495 -118.339 290.998C-127.076 287.5 -136.043 283.73 -145.148 279.818C-177.64 265.853 -211.857 250.115 -243.348 238.72C-262.144 231.911 -280.804 225.781 -294.7 225.656C-303.358 225.574 -309.607 228.033 -313.622 232.946C-317.733 237.977 -319.969 244.347 -322.203 251.105C-329.691 274.353 -341.416 298.675 -373.665 298.247M596.739 -14.7164C516.944 -65.1811 426.672 -57.3002 370.226 -61.8502C339.425 -64.4633 322.574 -53.402 293.477 -54.2366C260.794 -55.1752 234.446 -48.7734 212.481 -37.7195C197.419 -30.1509 184.45 -20.3389 173.038 -9.03448C150.563 13.2412 133.996 41.2328 124.981 74.2463C119.71 93.5474 116.717 114.23 115.362 135.665C114.374 151.301 114.082 167.442 114.426 184.051C114.921 207.905 117.011 233.213 112.01 253.929C110.267 261.139 107.636 267.685 104.369 273.721C90.5375 299.698 69.4424 320.928 37.5607 327.319C29.3424 328.966 20.4582 329.685 10.8199 329.399C-26.4405 328.296 -73.9731 314.941 -126.586 292.972C-135.581 289.223 -144.805 285.203 -154.159 281.047C-187.538 266.219 -222.551 249.72 -254.561 237.97C-273.671 230.948 -292.461 224.84 -306.629 224.635C-315.462 224.503 -321.938 226.863 -326.285 231.555C-330.767 236.39 -333.428 242.57 -336.004 249.191C-344.683 271.935 -356.344 296.565 -388.557 296.704M594.024 -15.0982C514.087 -66.8193 423.583 -59.6872 367.417 -64.2761C336.14 -66.9516 319.478 -55.3028 289.618 -56.5424C256.313 -57.7411 229.082 -51.8393 206.485 -41.0052C190.987 -33.5853 177.666 -23.8339 166.066 -12.4329C143.217 10.0261 126.924 38.8162 118.832 73.2089C114.1 93.3151 111.877 115.008 111.418 137.577C111.084 154.058 111.534 171.1 112.644 188.611C114.238 213.775 117.372 240.325 113.064 262.015C111.509 269.512 109.056 276.333 105.867 282.558C92.3426 309.366 69.6542 329.664 35.8849 334.759C27.1914 336.071 17.8124 336.431 7.6904 335.796C-31.3778 333.334 -80.6978 318.392 -134.828 294.954C-144.08 290.955 -153.564 286.68 -163.165 282.286C-197.432 266.594 -233.243 249.329 -265.769 237.228C-285.192 229.994 -304.11 223.911 -318.554 223.623C-327.562 223.44 -334.263 225.702 -338.944 230.174C-343.796 234.812 -346.881 240.801 -349.804 247.282C-359.676 269.524 -371.274 294.455 -403.45 295.167M591.305 -15.4821C511.228 -68.455 420.49 -62.0762 364.604 -66.7052C332.848 -69.4465 316.298 -57.305 285.752 -58.8551C251.74 -60.4165 223.708 -54.9155 200.482 -44.2977C184.551 -37.0231 170.874 -27.3357 159.081 -15.8405C135.857 6.80303 119.837 36.3872 112.671 72.1612C108.481 93.0773 107.026 115.776 107.464 139.478C107.783 156.806 109.028 174.786 110.85 193.162C113.617 219.69 117.813 247.506 114.106 270.09C112.768 277.895 110.464 284.971 107.353 291.385C94.1343 319.026 69.8576 338.395 34.2006 342.193C25.032 343.17 15.1607 343.176 4.5499 342.183C-36.3236 338.367 -87.4323 321.831 -143.085 296.922C-152.598 292.67 -162.334 288.147 -172.185 283.509C-207.338 266.954 -243.946 248.928 -276.987 236.475C-296.724 229.029 -315.771 222.966 -330.489 222.599C-339.671 222.367 -346.599 224.53 -351.61 228.785C-356.835 233.222 -360.338 239.029 -363.611 245.366C-374.675 267.105 -386.209 292.344 -418.346 293.626M588.591 -15.8635C508.375 -70.0895 417.398 -64.4663 361.793 -69.1355C329.561 -71.9392 313.123 -59.3047 281.891 -61.1653C247.169 -63.0929 218.338 -57.9891 194.48 -47.5911C178.115 -40.4665 164.082 -30.8371 152.102 -19.2454C128.503 3.58266 112.759 33.9642 106.515 71.1174C102.865 92.8386 102.183 116.551 103.512 141.385C104.486 159.557 106.467 178.435 109.055 197.715C112.915 225.55 118.251 254.684 115.147 278.169C114.024 286.283 111.87 293.611 108.839 300.215C95.9264 328.687 70.0627 347.133 32.5156 349.63C22.8719 350.27 12.5082 349.922 1.41112 348.577C-41.2689 343.407 -94.165 325.276 -151.337 298.9C-161.106 294.397 -171.1 289.624 -181.199 284.743C-217.24 267.324 -254.643 248.537 -288.202 235.727C-308.253 228.069 -327.431 222.027 -342.421 221.581C-351.778 221.298 -358.935 223.359 -364.276 227.396C-369.877 231.629 -373.799 237.254 -377.415 243.453C-389.671 264.691 -401.142 290.231 -433.241 292.085M585.875 -16.2437C505.518 -71.7261 414.308 -66.8514 358.983 -71.5596C326.272 -74.4291 309.949 -61.2982 278.027 -63.4727C242.6 -65.763 212.966 -61.0602 188.479 -50.8785C171.678 -43.9026 157.293 -34.3339 145.121 -22.649C121.149 0.362231 105.68 31.5425 100.363 70.0771C97.2542 92.6081 97.3398 117.325 99.5647 143.293C101.192 162.311 103.908 182.083 107.27 202.272C112.221 231.41 118.698 261.868 116.195 286.247C115.288 294.669 113.284 302.252 110.33 309.046C97.7233 338.35 70.2701 355.868 30.8377 357.065C20.7177 357.372 9.86288 356.668 -1.72045 354.97C-46.2032 348.45 -100.891 328.721 -159.584 300.874C-169.615 296.118 -179.86 291.097 -190.21 285.972C-227.141 267.686 -265.335 248.14 -299.415 234.976C-319.78 227.106 -339.084 221.088 -354.35 220.56C-363.877 220.229 -371.272 222.181 -376.94 226.005C-382.914 230.037 -387.254 235.48 -391.219 241.535C-404.668 262.27 -416.077 288.114 -448.134 290.542M583.156 -16.6277C502.66 -73.3631 411.211 -69.244 356.17 -73.9889C322.983 -76.9208 306.773 -63.297 274.165 -65.782C238.031 -68.4351 207.596 -64.1329 182.478 -54.1664C165.245 -47.3357 150.504 -37.8309 138.139 -26.0518C113.796 -2.85255 98.5954 29.1182 94.2037 69.0354C91.6348 92.3715 92.561 118.149 95.6075 145.197C97.9401 165.095 101.342 185.729 105.474 206.826C111.515 237.268 119.138 269.05 117.234 294.326C116.542 303.058 114.689 310.893 111.814 317.876C99.5139 348.011 70.5673 364.721 29.1473 364.499C18.5781 364.502 7.20509 363.412 -4.86451 361.361C-51.155 353.489 -107.63 332.165 -167.84 302.848C-178.128 297.842 -188.634 292.567 -199.23 287.203C-237.048 268.053 -276.038 247.746 -310.633 234.231C-331.307 226.152 -350.747 220.152 -366.285 219.544C-375.986 219.162 -383.61 221.011 -389.61 224.62C-395.962 228.443 -400.718 233.709 -405.03 239.623C-419.67 259.855 -431.014 286.005 -463.037 289.001M580.441 -17.0096C499.805 -74.9967 408.121 -71.6297 353.36 -76.4148C319.696 -79.4138 303.596 -65.2959 270.302 -68.0913C233.462 -71.1071 202.228 -67.2025 176.478 -57.4557C158.809 -50.7737 143.716 -41.3295 131.162 -29.4525C106.444 -6.07002 91.5193 26.6994 88.0495 67.9957C86.0237 92.1404 87.7051 118.914 91.6588 147.106C94.6377 167.844 98.7852 189.381 103.684 211.381C110.815 243.126 119.579 276.231 118.279 302.406C117.807 311.449 116.1 319.535 113.303 326.707C101.309 357.675 70.7558 373.438 27.4666 371.937C16.4149 371.597 4.57795 370.19 -7.99774 367.754C-56.002 358.659 -114.357 335.611 -176.089 304.822C-186.638 299.563 -197.397 294.041 -208.239 288.436C-246.944 268.424 -286.732 247.351 -321.844 233.484C-342.832 225.194 -362.402 219.213 -378.212 218.527C-388.088 218.095 -395.944 219.837 -402.268 223.237C-408.995 226.854 -414.167 231.942 -418.824 237.715C-434.657 257.445 -445.939 283.898 -477.924 287.465M577.726 -17.39C496.947 -76.6337 405.031 -74.0153 350.551 -78.8406C316.411 -81.902 300.423 -67.2911 266.442 -70.3957C228.892 -73.7778 196.861 -70.2717 170.48 -60.74C152.38 -54.2046 136.933 -44.8184 124.184 -32.8532C99.092 -9.28616 84.4431 24.2808 81.9001 66.9584C80.4127 91.9095 82.8529 119.683 87.715 149.018C91.3366 170.591 96.2279 193.033 101.901 215.943C110.122 248.991 120.029 283.418 119.333 310.491C119.076 319.845 117.519 328.184 114.8 335.546C103.113 367.344 70.9481 382.158 25.7933 379.381C14.2627 378.703 1.92979 376.938 -11.1285 374.153C-60.9688 363.67 -121.078 339.065 -184.333 306.805C-195.139 301.296 -206.153 295.522 -217.245 289.675C-256.837 268.799 -297.422 246.964 -333.052 232.743C-354.354 224.24 -374.051 218.285 -390.137 217.515C-400.188 217.033 -408.275 218.666 -414.927 221.855C-422.033 225.263 -427.621 230.174 -432.624 235.806C-449.645 255.036 -460.869 281.788 -492.811 285.93M575.008 -17.7749C494.091 -78.2715 401.935 -76.4087 347.735 -81.2729C313.116 -84.4001 297.243 -69.2929 262.576 -72.708C224.32 -76.4528 191.487 -73.3475 164.473 -64.0355C145.938 -57.6488 130.138 -48.3232 117.2 -36.2602C91.7342 -12.5099 77.3578 21.8509 75.7392 65.9124C74.795 91.6721 77.989 120.443 83.7584 150.922C88.0263 173.334 93.6627 196.68 100.105 220.497C109.417 254.848 120.469 290.602 120.373 318.571C120.332 328.233 118.921 336.821 116.284 344.376C104.903 377.008 71.1275 390.872 24.1035 386.816C12.0905 385.794 -0.737282 383.671 -14.272 380.544C-65.9496 368.674 -127.816 342.508 -192.592 308.778C-203.656 303.019 -214.927 296.994 -226.268 290.903C-266.747 269.163 -308.128 246.567 -344.273 231.994C-365.889 223.279 -385.716 217.344 -402.075 216.496C-412.301 215.964 -420.647 217.46 -427.599 220.467C-435.113 223.636 -441.085 228.403 -446.438 233.891C-464.651 252.619 -475.814 279.674 -507.718 284.387M572.292 -18.1555C491.236 -79.9051 398.845 -78.7944 344.925 -83.6988C309.831 -86.8884 294.071 -71.2895 258.713 -75.0173C219.751 -79.1248 186.115 -76.4203 158.473 -67.3247C102.167 -48.7995 70.6319 -3.65503 69.5862 64.8715C68.8833 110.967 81.2944 166.695 98.3194 225.054C108.721 260.709 120.916 297.784 121.424 326.652C122.357 379.722 82.6274 400.817 22.4288 394.254C-37.7697 387.691 -117.177 355.175 -200.836 310.753C-276.752 270.445 -361.772 218.396 -414 215.476C-473.731 212.139 -472.693 274.575 -522.603 282.848M39.1016 -356.716C132.658 -269.227 215.251 -170.158 268.057 -82.0833C283.079 -57.0262 296.046 -32.0186 296.969 -15.0078C299.63 34.1405 218.066 7.16526 166.296 -2.35222C103.825 -13.8345 39.7556 -27.356 -17.6231 -32.0943C-49.8366 -34.755 -81.6751 -32.2351 -73.6667 2.06411C-65.5547 36.7986 -20.3214 89.6909 17.9596 136.93C62.5674 191.976 102.842 247.865 126.486 296.51C150.13 345.154 155.568 385.944 131.946 399.031C113.446 409.278 79.1569 402.204 43.4764 391.633C-50.2771 363.853 -160.078 311.869 -275.862 240.445M43.8886 -353.722C126.576 -276.399 197.894 -190.516 250.496 -107.76C255.382 -100.074 260.116 -92.4408 264.608 -84.897C279.359 -60.1119 292.134 -35.3942 293.241 -18.4387C296.471 30.6277 218.252 6.03987 167.664 -2.41932C122.814 -9.91984 76.549 -18.9976 32.4275 -24.8325C17.0834 -26.892 2.02428 -28.5761 -12.6141 -29.7048C-44.3641 -32.1503 -75.8007 -29.6373 -68.6894 3.61763C-61.4869 37.2914 -18.3705 88.5263 18.0384 134.313C60.4598 187.664 98.7188 241.862 120.968 289.144C128.714 305.605 134.334 321.157 137.386 334.991C143.108 360.885 139.852 380.779 124.737 389.363C106.58 399.673 73.2613 393.33 38.7579 383.719C-31.0625 364.294 -109.465 331.403 -193.092 286.41C-218.046 272.986 -243.459 258.487 -269.25 242.938M48.6701 -350.731C128.601 -275.986 194.952 -193.78 247.329 -110.292C252.081 -102.715 256.744 -95.1679 261.15 -87.717C275.625 -63.2061 288.213 -38.7762 289.506 -21.8712C293.309 27.1179 218.434 4.91035 169.024 -2.49274C125.621 -8.99499 80.2749 -17.5092 36.7183 -22.8313C21.6363 -24.7344 6.81112 -26.291 -7.61436 -27.3216C-38.9046 -29.5554 -69.9366 -27.0445 -63.7214 5.16482C-57.4246 37.7814 -16.4252 87.3588 18.1092 131.687C58.3455 183.343 94.586 235.853 115.438 281.767C122.695 297.752 127.91 312.872 130.653 326.341C135.807 351.556 132.349 371.047 117.518 379.682C99.7 390.052 67.3564 384.442 34.0326 375.797C-33.399 358.344 -108.482 328.309 -189.086 286.259C-213.138 273.713 -237.673 260.102 -262.645 245.422M53.4562 -347.738C130.63 -275.57 192.02 -197.049 244.167 -112.822C248.794 -105.348 253.381 -97.8909 257.698 -90.5363C271.902 -66.2974 284.293 -42.1597 285.774 -25.3077C290.147 23.5995 218.619 3.76964 170.389 -2.56539C128.433 -8.0766 84.1175 -15.8799 41.0125 -20.8341C26.2259 -22.5351 11.6014 -24.01 -2.61242 -24.9412C-33.4391 -26.9598 -64.0704 -24.4545 -58.75 6.70803C-53.359 38.2674 -14.4802 86.1838 18.182 129.059C56.232 179.02 90.4566 229.839 109.914 274.389C116.683 289.899 121.493 304.586 123.931 317.695C128.516 342.231 124.856 361.316 110.304 370.002C92.8256 380.432 61.4573 375.554 29.3131 367.875C-35.7344 352.393 -107.493 325.217 -185.078 286.106C-208.228 274.437 -231.885 261.713 -256.041 247.899M58.238 -344.746C132.656 -275.156 189.097 -200.319 240.999 -115.352C245.498 -107.985 250.013 -100.613 254.239 -93.3545C268.167 -69.3898 280.371 -45.5399 282.04 -28.7397C286.983 20.0855 218.796 2.62399 171.748 -2.63699C131.234 -7.16663 87.8774 -14.3452 45.3027 -18.831C30.787 -20.3627 16.3887 -21.7243 2.38665 -22.5561C-27.9802 -24.363 -58.2096 -21.8646 -53.7826 8.2571C-49.3011 38.7558 -12.5392 85.0147 18.2509 126.437C54.1146 174.704 86.3267 223.835 104.386 267.018C110.67 282.056 115.072 296.306 117.204 309.055C121.217 332.909 117.356 351.589 103.089 360.332C85.952 370.828 55.5555 366.679 24.592 359.963C-38.0666 346.454 -106.506 322.134 -181.069 285.968C-203.319 275.178 -226.096 263.341 -249.433 250.395M63.0225 -341.753C134.684 -274.74 186.186 -203.588 237.835 -117.881C242.21 -110.619 246.644 -103.337 250.786 -96.173C264.442 -72.4802 276.453 -48.9191 278.306 -32.1741C283.818 16.5691 218.974 1.46871 173.107 -2.71098C134.026 -6.27194 91.6359 -12.819 49.5904 -16.8351C35.3455 -18.1975 21.1724 -19.4446 7.38325 -20.1783C-22.5201 -21.77 -52.3486 -19.2771 -48.8176 9.79901C-45.242 39.2405 -10.5995 83.8372 18.3173 123.807C51.9995 170.382 82.1909 217.821 98.8515 259.637C104.647 274.198 108.643 288.017 110.47 300.405C113.916 323.579 109.851 341.857 95.8653 350.648C79.0674 361.203 49.6426 357.783 19.8587 352.033C-40.4147 340.494 -105.531 319.033 -177.075 285.807C-198.423 275.894 -220.323 264.945 -242.84 252.868M67.8094 -338.759C136.715 -274.324 183.295 -206.854 234.677 -120.407C238.93 -113.25 243.286 -106.056 247.337 -98.9868C260.718 -75.5695 272.541 -52.2949 274.582 -35.6018C280.662 13.0608 219.161 0.312896 174.479 -2.77479C136.827 -5.37778 95.4066 -11.2813 53.8941 -14.8243C39.9199 -16.0174 25.9721 -17.15 12.3994 -17.782C-17.0441 -19.162 -46.467 -16.6725 -43.8331 11.3593C-41.1633 39.7436 -8.64138 82.6793 18.4033 121.196C49.8992 166.077 78.0744 211.824 93.3401 252.278C98.6473 266.363 102.24 279.749 103.756 291.773C106.633 314.269 102.367 332.141 88.6636 340.986C72.2047 351.601 43.7542 348.916 15.1511 344.13C-42.7335 334.563 -104.53 315.959 -173.051 285.676C-193.499 276.641 -214.52 266.579 -236.216 255.37M72.5907 -335.768C138.739 -273.91 180.406 -210.125 231.508 -122.938C235.642 -115.883 239.916 -108.778 243.879 -101.807C256.988 -78.6603 268.619 -55.6758 270.843 -39.0378C277.497 9.54625 219.325 -0.864288 175.835 -2.85179C139.607 -4.50626 99.1594 -9.76263 58.1773 -12.83C44.4703 -13.8573 30.755 -14.8685 17.3916 -15.4058C-11.5884 -16.5707 -40.6105 -14.0868 -38.8726 12.8995C-37.1123 40.2231 -6.70358 81.5048 18.4665 118.564C47.7773 161.749 73.9353 205.807 87.8036 244.892C92.6262 258.504 95.8093 271.455 97.0204 283.118C99.3299 304.935 94.8581 322.399 81.4368 331.298C65.3206 341.977 37.8417 340.021 10.417 336.201C-45.0824 328.604 -103.555 312.86 -169.059 285.517C-188.605 277.36 -208.748 268.186 -229.625 257.846M77.3775 -332.774C140.77 -273.494 177.542 -213.39 228.347 -125.467C232.363 -118.516 236.551 -111.504 240.426 -104.624C253.26 -81.7532 264.7 -59.0586 267.111 -42.4724C274.335 6.02971 219.497 -2.04848 177.199 -2.92256C142.389 -3.64269 102.92 -8.23665 62.4748 -10.8275C49.0397 -11.6867 35.5485 -12.5821 22.3967 -13.02C-6.12349 -13.9732 -34.74 -11.4926 -33.9029 14.4458C-33.0484 40.7122 -4.76023 80.333 18.5378 115.939C45.6622 157.43 69.803 199.798 82.2775 237.519C86.6118 250.655 89.3907 263.173 90.2953 274.476C92.0334 295.61 87.3631 312.673 74.2204 321.623C58.4432 332.361 31.9397 331.138 5.69096 328.28C-47.4196 322.656 -102.573 309.768 -165.054 285.369C-183.699 278.09 -202.96 269.806 -223.024 260.328M82.1626 -329.78C142.799 -273.077 174.691 -216.649 225.183 -127.996C229.082 -121.148 233.186 -114.224 236.973 -107.442C249.535 -84.8417 260.782 -62.4371 263.383 -45.904C271.175 2.51745 219.662 -3.24119 178.564 -2.99367C145.162 -2.79236 106.674 -6.71906 66.7669 -8.82731C53.5952 -9.52416 40.3366 -10.2981 27.3978 -10.6379C-0.65892 -11.3759 -28.8747 -8.90106 -28.9336 15.9918C-28.9849 41.201 -2.81738 79.1609 18.6085 113.313C43.5466 153.11 65.6715 193.787 76.7474 230.142C80.5934 242.801 82.9668 254.888 83.5661 265.83C84.7354 286.286 79.8592 302.941 67.0047 311.946C51.5703 322.748 26.0373 322.255 0.969382 320.361C-49.756 316.707 -101.586 306.678 -161.048 285.218C-178.791 278.817 -197.174 271.421 -216.418 262.81M86.9449 -326.79C144.825 -272.666 171.851 -219.912 222.019 -130.525C225.805 -123.779 229.822 -116.946 233.522 -110.256C245.809 -87.9307 256.868 -65.8126 259.651 -49.3335C268.013 -0.993978 219.822 -4.44383 179.929 -3.05928C147.926 -1.94943 110.431 -5.19738 71.0634 -6.81834C58.1601 -7.35061 45.1292 -8.00525 32.4032 -8.24688C4.80634 -8.77318 -23.0038 -6.30177 -23.9598 17.5468C-24.9169 41.6988 -0.869952 77.9977 18.6838 110.697C41.4368 148.798 61.5443 187.786 71.2253 222.777C74.5868 234.964 76.5547 246.619 76.8451 257.196C77.4467 276.973 72.3684 293.224 59.7924 302.279C44.6958 313.142 20.1394 313.38 -3.74895 312.452C-52.0855 310.771 -100.592 303.602 -157.036 285.083C-173.878 279.559 -191.383 273.051 -209.808 265.309M91.7304 -323.796C146.854 -272.249 169.035 -223.162 218.856 -133.053C222.53 -126.408 226.455 -119.669 230.069 -113.073C242.084 -91.0188 252.951 -69.1906 255.923 -52.7645C264.855 -4.50699 219.973 -5.66455 181.294 -3.13005C150.683 -1.12585 114.186 -3.68073 75.3571 -4.81913C62.7184 -5.19028 49.9189 -5.72235 37.4058 -5.86584C10.2724 -6.17697 -17.1406 -3.71455 -18.9877 19.0907C-20.8543 42.1819 1.08055 76.8256 18.7537 108.066C39.324 144.476 57.4119 181.77 65.6991 215.397C68.5723 227.107 70.136 238.329 70.1161 248.543C70.1502 267.64 64.8697 283.487 52.5759 292.596C37.8183 303.519 14.2362 304.491 -8.4751 304.524C-54.4264 304.812 -99.6098 300.503 -153.031 284.927C-168.972 280.281 -185.599 274.661 -203.203 267.787M96.5116 -320.805C148.878 -271.835 166.235 -226.409 215.689 -135.585C219.251 -129.043 223.101 -122.387 226.611 -115.893C238.394 -94.0948 249.026 -72.5765 252.185 -56.2022C261.691 -8.02318 220.109 -6.90117 182.65 -3.20855C153.418 -0.325099 117.927 -2.17878 79.6452 -2.82296C67.2711 -3.033 54.7078 -3.44018 42.4053 -3.48299C15.7317 -3.58242 -11.2757 -1.12341 -14.02 20.6375C-16.7924 42.6716 3.02185 75.6543 18.824 105.44C37.2081 140.156 53.2799 175.759 60.1685 208.019C62.5534 219.253 63.7117 230.044 63.3865 239.897C62.848 258.312 57.3653 273.755 45.3561 282.915C30.9413 293.901 8.33082 295.603 -13.2008 296.601C-56.7633 298.862 -98.627 297.409 -149.029 284.773C-164.069 281.005 -179.817 276.272 -196.606 270.263M101.298 -317.811C150.909 -271.419 163.461 -229.646 212.526 -138.113C215.98 -131.67 219.734 -125.111 223.158 -118.711C234.67 -97.1842 245.109 -75.9547 248.456 -59.6322C258.53 -11.5338 220.239 -8.15129 184.017 -3.27471C156.157 0.473817 121.678 -0.664503 83.9412 -0.8192C71.8329 -0.869387 59.4998 -1.15262 47.4101 -1.09729C21.2001 -0.981553 -5.40657 1.47191 -9.0468 22.1873C-12.725 43.1641 4.9687 74.4859 18.8988 102.819C35.0977 135.839 49.1523 169.752 54.646 200.649C56.5451 211.412 57.2965 221.765 56.6637 231.259C55.5576 248.995 49.8727 264.033 38.1457 273.248C24.0699 284.294 2.43487 286.728 -17.9172 288.692C-59.0945 292.922 -97.6349 294.329 -145.015 284.637C-159.154 281.747 -174.024 277.901 -189.993 272.762M106.084 -314.817C152.938 -271.002 160.707 -232.874 209.363 -140.641C212.709 -134.298 216.37 -127.831 219.704 -121.527C230.945 -100.272 241.192 -79.3329 244.723 -63.0656C255.366 -15.0492 220.356 -9.41764 185.377 -3.34766C158.874 1.25082 125.42 0.836879 88.2324 1.18238C76.3887 1.2933 64.2871 1.13287 52.4103 1.28635C26.6601 1.61379 0.459015 4.06374 -4.07837 23.7348C-8.6661 43.651 6.91068 73.3153 18.9687 100.195C32.9812 131.521 45.0187 163.744 49.1149 193.274C50.5257 203.56 50.8718 213.481 49.9337 222.615C48.2599 239.671 42.3729 254.305 30.9243 263.57C17.1876 274.676 -3.47329 277.844 -22.6494 280.77C-61.4379 286.973 -96.6587 291.236 -141.02 284.484C-154.257 282.471 -168.249 279.514 -183.398 275.242M110.866 -311.827C154.965 -270.59 157.974 -236.095 206.201 -143.171C209.44 -136.928 213.008 -130.554 216.253 -124.346C227.222 -103.363 237.276 -82.7125 240.994 -66.497C252.207 -18.5626 220.463 -10.7032 186.745 -3.41526C161.591 2.02028 129.165 2.34156 92.5282 3.18599C80.9455 3.45457 69.079 3.42024 57.4151 3.67185C32.1283 4.21447 6.3279 6.65879 0.89455 25.2843C-4.59899 44.1432 8.86101 72.1501 19.0432 97.5732C30.8706 127.204 40.8908 157.737 43.5933 185.902C44.5159 195.712 44.4577 205.201 43.2094 213.971C40.9668 230.349 34.8739 244.575 23.7099 253.892C10.3159 265.061 -9.37319 268.959 -27.3697 272.849C-63.773 281.022 -95.6705 288.145 -137.009 284.336C-149.342 283.205 -162.455 281.135 -176.788 277.728M115.651 -308.832C156.992 -270.172 155.268 -239.301 203.036 -145.698C206.172 -139.552 209.642 -133.273 212.797 -127.161C223.49 -106.453 233.31 -86.1203 237.259 -69.9295C248.908 -22.1629 220.547 -12.0085 188.103 -3.48748C164.281 2.76654 132.898 3.83695 96.819 5.18724C85.4984 5.6122 73.8656 5.70532 62.4146 6.05508C37.5877 6.8094 12.193 9.25025 5.8625 26.8314C-0.538041 44.6344 10.8026 70.9792 19.1138 94.9479C28.755 122.884 36.7591 151.726 38.0629 178.525C38.5009 187.862 38.0336 196.916 36.48 205.324C33.6661 221.02 27.3748 234.845 16.493 244.216C3.43685 255.446 -15.2769 260.077 -32.0927 264.931C-66.1071 275.077 -94.685 285.056 -133.005 284.188C-144.437 283.935 -156.672 282.752 -170.189 280.211M120.434 -305.843C159.019 -269.76 152.583 -242.5 199.87 -148.232C202.903 -142.182 206.271 -136.001 209.341 -129.984C219.763 -109.548 229.391 -89.5051 233.524 -73.3696C245.747 -25.6815 220.617 -13.3363 189.462 -3.56838C166.96 3.48775 136.629 5.32009 101.106 7.1775C90.0437 7.7554 78.6486 7.97944 67.4092 8.42861C43.0458 9.3981 18.0519 11.8334 10.8218 28.3656C3.51175 45.1079 12.7366 69.7938 19.1745 92.3106C26.6293 118.553 32.6175 145.704 32.5264 171.14C32.4761 180 31.6033 188.622 29.7444 196.67C26.3628 211.686 19.8656 225.103 9.26602 234.528C-3.44743 245.822 -21.1931 251.178 -36.8293 256.998C-68.4585 269.113 -93.7143 281.953 -129.011 284.027C-139.542 284.652 -150.897 284.355 -163.594 282.683M125.219 -302.848C161.051 -269.34 149.925 -245.684 196.705 -150.759C199.637 -144.808 202.906 -138.722 205.886 -132.799C216.032 -112.637 225.471 -92.8812 229.792 -76.7975C242.583 -29.1901 220.666 -14.6787 190.827 -3.6324C169.63 4.21072 140.361 6.81667 105.403 9.18687C94.599 9.9177 83.4451 10.276 72.415 10.8199C48.5115 12.0011 23.9194 14.4295 15.7958 29.9208C7.57996 45.6059 14.6843 68.6309 19.2502 89.6944C24.5235 114.244 28.4944 139.706 27.0047 163.775C26.4661 172.16 25.189 180.349 23.0236 188.036C19.0732 202.374 12.3739 215.387 2.05771 224.865C-10.3167 236.219 -27.087 242.308 -41.5436 249.093C-70.7839 263.181 -92.7164 278.881 -124.997 283.89C-134.627 285.394 -145.105 285.984 -156.982 285.181M130.005 -299.855C163.082 -268.925 147.3 -248.85 193.547 -153.285C196.38 -147.428 199.543 -141.443 202.438 -135.615C212.313 -115.724 221.56 -96.2585 226.065 -80.23C239.429 -32.7011 220.703 -16.0443 192.193 -3.70451C172.287 4.91176 144.088 8.29693 109.696 11.1859C99.151 12.0696 88.2348 12.5589 77.4212 13.2044C53.9812 14.6007 29.7898 17.0236 20.7702 31.4693C11.6485 46.0972 16.636 67.4648 19.3261 87.0716C22.4131 109.927 24.3679 133.698 21.4808 156.399C20.4576 164.311 18.7714 172.065 16.2971 179.388C11.7791 193.047 4.87756 205.655 -5.15892 215.182C-17.1943 226.596 -32.9905 233.419 -46.2662 241.168C-73.1214 257.226 -91.7306 275.785 -120.99 283.739C-129.718 286.12 -139.318 287.598 -150.376 287.664M134.787 -296.864C165.106 -268.51 144.698 -252.005 190.38 -155.817C193.115 -150.055 196.175 -144.166 198.98 -138.434C208.579 -118.818 217.638 -99.6391 222.331 -83.6637C236.268 -36.212 220.71 -17.4367 193.556 -3.77439C174.928 5.59991 147.813 9.77954 113.991 13.1907C103.704 14.2274 93.0265 14.8463 82.4247 15.5912C59.4444 17.1993 35.6576 19.6199 25.7433 33.0188C15.7121 46.586 18.5826 66.2961 19.4005 84.4498C20.3012 105.611 20.2389 127.692 15.958 149.029C14.4466 156.465 12.3561 163.786 9.57528 170.749C4.48593 183.725 -2.61775 195.929 -12.3684 205.513C-24.061 216.99 -38.8854 224.542 -50.9853 233.254C-75.4516 251.284 -90.7412 272.7 -116.978 283.597C-124.805 286.856 -133.526 289.222 -143.764 290.155M139.572 -293.869C167.136 -268.093 142.128 -255.141 187.215 -158.344C189.858 -152.675 192.811 -146.886 195.526 -141.251C204.849 -121.909 213.761 -102.994 218.597 -87.0959C233.23 -39.6472 220.689 -18.8518 194.914 -3.84628C177.546 6.26875 151.531 11.2553 118.278 15.1888C108.246 16.3749 97.8101 17.1282 87.4211 17.9712C64.9044 19.7945 41.5195 22.2082 30.708 34.5628C19.771 47.0728 20.5209 65.122 19.468 81.8212C18.1835 101.287 16.1039 121.678 10.4244 141.649C8.42469 148.608 5.92876 155.497 2.84263 162.1C-2.81556 174.397 -10.1202 186.196 -19.5923 195.83C-30.9471 207.369 -44.7961 215.654 -55.7164 225.331C-77.7975 245.33 -89.7638 269.606 -112.981 283.442C-119.907 287.579 -127.746 290.836 -137.172 292.631M144.355 -290.879C169.162 -267.681 139.586 -258.263 184.049 -160.877C186.593 -155.303 189.44 -149.615 192.069 -144.072C201.116 -125.005 209.84 -106.376 214.864 -90.5311C230.071 -43.1609 220.645 -20.2941 196.276 -3.92229C180.148 6.91614 155.244 12.72 122.572 17.1874C112.794 18.523 102.599 19.4106 92.4219 20.353C70.365 22.3879 47.3845 24.7996 35.677 36.1087C23.8343 47.5614 22.4636 63.9496 19.5386 79.1957C16.0678 96.9672 11.9722 115.668 4.89774 134.275C2.41222 140.763 -0.486734 147.218 -3.88303 153.457C-10.1089 165.075 -17.6169 176.47 -26.8081 186.153C-37.8239 197.752 -50.6975 206.769 -60.4382 217.411C-80.1304 239.384 -88.7771 266.516 -108.973 283.297C-114.998 288.312 -121.959 292.456 -130.564 295.118M149.14 -287.885C171.191 -267.265 137.081 -261.359 180.89 -163.402C183.34 -157.92 186.079 -152.332 188.62 -146.886C197.39 -128.093 205.927 -109.752 211.134 -93.9614C226.911 -46.6732 220.573 -21.7579 197.643 -3.98874C182.74 7.5605 158.962 14.1944 126.866 19.1921C117.344 20.6772 107.393 21.7026 97.4254 22.7397C75.832 24.9898 53.2534 27.3946 40.6488 37.6593C27.8965 48.0514 24.4138 62.7844 19.6118 76.575C13.9547 92.6522 7.84306 109.662 -0.628824 126.901C-3.60262 132.913 -6.90706 138.936 -10.6123 144.811C-17.407 155.75 -25.1197 166.737 -34.0251 176.477C-44.6981 188.139 -56.6 197.886 -65.1611 209.493C-82.4681 233.436 -87.7915 263.427 -104.968 283.148C-110.092 289.04 -116.175 294.072 -123.96 297.604M153.926 -284.892C173.221 -266.849 134.61 -264.439 177.726 -165.931C180.087 -160.538 182.701 -155.06 185.165 -149.703C193.622 -131.203 202.009 -113.13 207.401 -97.3952C223.746 -50.1876 220.468 -23.253 199.002 -4.06221C185.309 8.184 162.662 15.6513 131.158 21.1921C121.888 22.8219 112.181 23.9864 102.426 25.1217C81.2927 27.5835 59.1186 29.9861 45.618 39.2053C31.9599 48.5402 26.3566 61.6121 19.6825 73.9496C11.8439 88.3347 3.71139 103.651 -6.15544 119.528C-9.61751 125.063 -13.3273 130.655 -17.3379 136.168C-24.7039 146.425 -32.6151 157.01 -41.2419 166.801C-51.5759 178.523 -62.5036 189.004 -69.8876 201.572C-84.8058 227.487 -86.8096 260.335 -100.963 282.998C-105.186 289.769 -110.391 295.688 -117.357 300.089M158.708 -281.9C175.246 -266.435 132.169 -267.498 174.559 -168.462C176.827 -163.162 179.331 -157.788 181.713 -152.521C189.894 -134.296 198.089 -116.512 203.673 -100.826C220.587 -53.7008 220.331 -24.7729 200.371 -4.12957C187.867 8.79881 166.371 17.1143 135.454 23.1959C126.435 24.9717 116.974 26.274 107.435 27.5109C86.7648 30.1878 64.989 32.5802 50.595 40.7585C36.0311 49.0362 28.3072 60.4473 19.7609 71.3316C9.73606 84.0224 -0.412462 97.6479 -11.6742 112.161C-15.6209 117.223 -19.7387 122.379 -24.0558 127.532C-31.9894 137.11 -40.1076 147.289 -48.4474 157.136C-58.4424 168.918 -68.3946 180.131 -74.599 193.665C-87.132 221.55 -85.8126 257.257 -96.9483 282.861C-100.27 290.51 -104.596 297.317 -110.745 302.581M163.495 -278.907C177.276 -266.019 129.767 -270.532 171.397 -170.992C173.576 -165.781 175.967 -160.509 178.26 -155.338C186.169 -137.384 194.172 -119.891 199.939 -104.26C217.424 -57.2163 220.157 -26.3202 201.73 -4.20268C190.399 9.39655 170.064 18.5647 139.747 25.1961C130.975 27.1145 121.762 28.5582 112.435 29.8944C92.2247 32.7831 70.8534 35.1732 55.5597 42.3025C40.09 49.523 30.2454 59.2731 19.8283 68.7029C7.61825 79.6982 -4.54744 91.6341 -17.2078 104.781C-21.6428 109.367 -26.1661 114.091 -30.7884 118.883C-39.2909 127.782 -47.6101 137.556 -55.6701 147.452C-65.3224 159.297 -74.3042 171.241 -79.3278 185.739C-89.4719 215.597 -84.8291 254.164 -92.9457 282.708C-95.3655 291.233 -98.8142 298.928 -104.144 305.062M168.276 -275.916C179.301 -265.606 127.399 -273.546 168.229 -173.523C170.319 -168.402 172.598 -163.232 174.802 -158.158C182.436 -140.48 190.251 -123.273 196.205 -107.694C214.263 -60.7288 219.947 -27.8954 203.091 -4.27755C192.915 9.98119 173.755 20.0085 144.035 27.1925C135.511 29.2521 126.546 30.8382 117.432 32.2726C97.6852 35.3765 76.7157 37.7598 60.5249 43.8448C44.1457 50.0045 32.188 58.1007 19.895 66.0738C5.49871 75.3749 -8.68421 85.6211 -22.7383 97.4035C-27.6616 101.513 -32.5891 105.804 -37.5192 110.238C-46.5893 118.458 -55.1106 127.827 -62.8885 137.777C-72.2029 149.684 -80.2081 162.359 -84.0557 177.819C-91.8147 209.646 -83.8486 251.073 -88.9424 282.56C-90.4617 291.964 -93.0315 300.546 -97.5419 307.548M173.062 -272.923C181.332 -265.19 125.074 -276.529 165.07 -176.049C167.074 -171.014 169.236 -165.954 171.352 -160.973C178.714 -143.565 186.337 -126.648 192.477 -111.125C211.103 -64.2409 219.703 -29.4942 204.459 -4.34519C195.421 10.5617 177.447 21.4527 148.334 29.1995C140.058 31.4016 131.346 33.1313 122.44 34.6617C103.153 37.9772 82.5884 40.3583 65.5028 45.3965C48.2177 50.499 34.1395 56.9342 19.9744 63.4542C3.39177 71.0609 -12.8072 79.6162 -28.2588 90.0308C-33.6666 93.6676 -39.0032 97.5237 -44.2422 101.593C-53.8837 109.13 -62.6084 118.096 -70.1029 128.099C-79.0746 140.069 -86.1081 153.473 -88.7773 169.9C-94.1511 203.696 -82.8617 247.983 -84.9376 282.411C-85.5552 292.692 -87.2436 302.166 -90.937 310.032M177.848 -269.928C183.36 -264.772 122.786 -279.486 161.907 -178.577C163.827 -173.629 165.871 -168.674 167.9 -163.79C174.987 -146.658 182.418 -130.031 188.747 -114.556C207.944 -67.753 219.421 -31.1177 205.822 -4.41495C197.905 11.1301 181.125 22.8891 152.626 31.1997C144.596 33.5397 136.135 35.4153 127.441 37.0438C108.618 40.5745 88.4551 42.9488 70.4723 46.9426C52.2815 50.988 36.0826 55.7622 20.0454 60.829C1.27763 66.7402 -16.9386 73.6059 -33.7851 82.6574C-39.6812 85.8179 -45.4221 89.241 -50.9676 92.9503C-61.1779 99.8092 -70.1036 108.37 -77.3183 118.422C-85.951 130.452 -92.0102 144.59 -93.4987 161.981C-96.4836 197.75 -81.8746 244.893 -80.9277 282.264C-80.6448 293.424 -81.4543 303.784 -84.332 312.516M182.629 -266.937C185.385 -264.359 120.538 -282.419 158.739 -181.108C160.572 -176.245 162.5 -171.401 164.44 -166.609C171.256 -149.748 178.494 -133.41 185.009 -117.991C204.775 -71.2707 219.09 -32.7705 207.181 -4.48685C200.367 11.691 184.733 24.2525 156.916 33.2024C149.112 35.6629 140.921 37.7018 132.44 39.4285C114.077 43.1709 94.3181 45.543 75.4394 48.4913C56.339 51.476 38.0244 54.5915 20.1139 58.2064C-0.840212 62.4233 -21.0724 67.598 -39.3175 75.283C-45.7019 77.9671 -51.8482 80.9586 -57.699 84.3068C-68.4769 90.4863 -77.6048 98.6423 -84.5374 108.748C-92.831 120.838 -97.9186 135.706 -98.2274 154.062C-98.8272 191.801 -80.8949 241.804 -76.9288 282.114C-75.7443 294.152 -75.6761 305.4 -77.7331 315M187.416 -263.944C187.416 -263.944 118.331 -285.323 155.577 -183.637C192.822 -81.9519 257.438 1.80929 161.209 35.2011C94.7109 58.274 -3.85509 46.3084 -64.4223 75.6616C-89.3416 87.7389 -104.545 110.67 -102.948 146.142C-101.159 185.853 -79.9069 238.712 -72.9193 281.967C-70.8342 294.883 -69.8859 307.017 -71.1246 317.487" stroke="white" stroke-width="0.138533" stroke-miterlimit="10"/>
</svg>
